<svg xmlns="http://www.w3.org/2000/svg" width="800" height="420" viewBox="0 0 800 420">
  <defs>
    <linearGradient id="g" x1="0" x2="1" y1="0" y2="1"><stop offset="0" stop-color="#ff7a1a"/><stop offset="1" stop-color="#6ea8ff"/></linearGradient>
    <pattern id="grid" width="32" height="32" patternUnits="userSpaceOnUse"><path d="M32 0H0v32" fill="none" stroke="rgba(255,255,255,.07)"/></pattern>
  </defs>
  <rect width="800" height="420" rx="28" fill="#090b0f"/>
  <rect width="800" height="420" fill="url(#grid)" opacity=".75"/>
  <rect x="54" y="54" width="692" height="312" rx="22" fill="#101318" stroke="rgba(255,255,255,.12)"/>
  <circle cx="92" cy="88" r="7" fill="#ff5f57"/><circle cx="116" cy="88" r="7" fill="#ffbd2e"/><circle cx="140" cy="88" r="7" fill="#28c840"/>
  <rect x="82" y="126" width="250" height="20" rx="6" fill="url(#g)"/>
  <rect x="82" y="166" width="330" height="18" rx="6" fill="rgba(255,255,255,.80)"/>
  <rect x="82" y="200" width="270" height="12" rx="6" fill="rgba(255,255,255,.45)"/>
  <rect x="82" y="226" width="310" height="12" rx="6" fill="rgba(255,255,255,.30)"/>
  <rect x="82" y="286" width="120" height="34" rx="10" fill="url(#g)"/>
  <rect x="222" y="286" width="110" height="34" rx="10" fill="rgba(255,255,255,.06)" stroke="rgba(255,255,255,.15)"/>
  <rect x="488" y="110" width="174" height="174" rx="28" fill="rgba(255,255,255,.06)" stroke="rgba(255,255,255,.14)"/>
  <path d="M535 250l52-98 62 98H535z" fill="url(#g)" opacity=".95"/>
  <text x="82" y="356" fill="rgba(255,255,255,.78)" font-family="monospace" font-size="22" font-weight="700">Schematic Grid Pro</text>
</svg>