<svg xmlns="http://www.w3.org/2000/svg" width="1200" height="750" viewBox="0 0 1200 750" role="img" aria-label="Default Clean theme preview">
  <defs>
    <linearGradient id="bg" x1="0" y1="0" x2="1" y2="1"><stop stop-color="#f8fafc"/><stop offset="1" stop-color="#dbeafe"/></linearGradient>
    <linearGradient id="accent" x1="0" y1="0" x2="1" y2="1"><stop stop-color="#3b82f6"/><stop offset="1" stop-color="#8b5cf6"/></linearGradient>
    <filter id="shadow" x="-20%" y="-20%" width="140%" height="140%"><feDropShadow dx="0" dy="18" stdDeviation="18" flood-color="#1e293b" flood-opacity=".18"/></filter>
  </defs>
  <rect width="1200" height="750" rx="48" fill="url(#bg)"/>
  <rect x="78" y="70" width="1044" height="610" rx="34" fill="#ffffff" filter="url(#shadow)"/>
  <rect x="126" y="128" width="280" height="24" rx="12" fill="#0f172a" opacity=".85"/>
  <rect x="796" y="124" width="88" height="28" rx="14" fill="#e2e8f0"/>
  <rect x="904" y="124" width="88" height="28" rx="14" fill="#e2e8f0"/>
  <rect x="1012" y="116" width="62" height="44" rx="16" fill="url(#accent)"/>
  <rect x="126" y="226" width="430" height="54" rx="18" fill="#0f172a"/>
  <rect x="126" y="302" width="350" height="22" rx="11" fill="#64748b" opacity=".65"/>
  <rect x="126" y="344" width="410" height="22" rx="11" fill="#64748b" opacity=".36"/>
  <rect x="126" y="414" width="150" height="48" rx="18" fill="url(#accent)"/>
  <rect x="296" y="414" width="150" height="48" rx="18" fill="#eff6ff" stroke="#bfdbfe"/>
  <rect x="642" y="218" width="388" height="314" rx="34" fill="url(#accent)" opacity=".92"/>
  <circle cx="810" cy="356" r="82" fill="#fff" opacity=".22"/>
  <rect x="710" y="570" width="288" height="22" rx="11" fill="#cbd5e1"/>
  <rect x="760" y="612" width="188" height="18" rx="9" fill="#e2e8f0"/>
</svg>
