<svg xmlns="http://www.w3.org/2000/svg" width="1200" height="750" viewBox="0 0 1200 750" role="img" aria-label="Futuristic Cyber theme preview">
  <defs>
    <radialGradient id="orb" cx="50%" cy="42%" r="60%"><stop stop-color="#00f0ff" stop-opacity=".35"/><stop offset=".45" stop-color="#8b5cf6" stop-opacity=".20"/><stop offset="1" stop-color="#020617" stop-opacity="0"/></radialGradient>
    <linearGradient id="bg" x1="0" y1="0" x2="1" y2="1"><stop stop-color="#050816"/><stop offset="1" stop-color="#070214"/></linearGradient>
    <linearGradient id="cyber" x1="0" y1="0" x2="1" y2="1"><stop stop-color="#00f0ff"/><stop offset=".55" stop-color="#7c3aed"/><stop offset="1" stop-color="#ff00c8"/></linearGradient>
  </defs>
  <rect width="1200" height="750" rx="48" fill="url(#bg)"/>
  <rect width="1200" height="750" rx="48" fill="url(#orb)"/>
  <g fill="none" stroke="#00f0ff" stroke-opacity=".16">
    <circle cx="600" cy="372" r="280"/><circle cx="600" cy="372" r="212"/><circle cx="600" cy="372" r="144"/>
  </g>
  <rect x="82" y="76" width="1036" height="598" rx="36" fill="#070b19" fill-opacity=".82" stroke="#1f2a55"/>
  <rect x="128" y="126" width="944" height="88" rx="22" fill="#0b1024" stroke="#243b77"/>
  <rect x="162" y="156" width="230" height="28" rx="14" fill="url(#cyber)"/>
  <rect x="764" y="152" width="92" height="20" rx="10" fill="#94a3b8" opacity=".45"/>
  <rect x="884" y="152" width="92" height="20" rx="10" fill="#94a3b8" opacity=".45"/>
  <rect x="1004" y="144" width="48" height="36" rx="14" fill="#00f0ff" opacity=".85"/>
  <rect x="156" y="292" width="442" height="62" rx="18" fill="#f8fafc" opacity=".95"/>
  <rect x="156" y="380" width="350" height="20" rx="10" fill="#94a3b8" opacity=".55"/>
  <rect x="156" y="422" width="410" height="20" rx="10" fill="#94a3b8" opacity=".32"/>
  <rect x="156" y="510" width="168" height="50" rx="16" fill="url(#cyber)"/>
  <rect x="680" y="276" width="322" height="304" rx="36" fill="#030712" stroke="#00f0ff" stroke-opacity=".35"/>
  <path d="M762 500L820 350L878 438L920 322L970 500Z" fill="url(#cyber)" opacity=".88"/>
  <circle cx="872" cy="390" r="96" fill="none" stroke="#ff00c8" stroke-opacity=".42" stroke-width="10"/>
</svg>
