<svg xmlns="http://www.w3.org/2000/svg" width="1200" height="750" viewBox="0 0 1200 750" role="img" aria-label="Developer Pro theme preview">
  <defs>
    <linearGradient id="bg" x1="0" y1="0" x2="1" y2="1"><stop stop-color="#020617"/><stop offset=".55" stop-color="#030712"/><stop offset="1" stop-color="#052e2b"/></linearGradient>
    <linearGradient id="neon" x1="0" y1="0" x2="1" y2="1"><stop stop-color="#00ff41"/><stop offset="1" stop-color="#00f0ff"/></linearGradient>
    <filter id="glow"><feGaussianBlur stdDeviation="7" result="b"/><feMerge><feMergeNode in="b"/><feMergeNode in="SourceGraphic"/></feMerge></filter>
  </defs>
  <rect width="1200" height="750" rx="48" fill="url(#bg)"/>
  <g opacity=".18" stroke="#00ff41" stroke-width="1">
    <path d="M0 110H1200M0 210H1200M0 310H1200M0 410H1200M0 510H1200M0 610H1200"/>
    <path d="M120 0V750M240 0V750M360 0V750M480 0V750M600 0V750M720 0V750M840 0V750M960 0V750M1080 0V750"/>
  </g>
  <rect x="76" y="68" width="1048" height="614" rx="30" fill="#020617" stroke="#12352f"/>
  <rect x="118" y="114" width="964" height="54" rx="18" fill="#07111d" stroke="#17443c"/>
  <circle cx="150" cy="141" r="8" fill="#ff0040"/><circle cx="178" cy="141" r="8" fill="#f59e0b"/><circle cx="206" cy="141" r="8" fill="#00ff41"/>
  <rect x="118" y="214" width="492" height="328" rx="20" fill="#050505" stroke="#00ff41" stroke-opacity=".35"/>
  <text x="152" y="270" fill="#00ff41" font-family="monospace" font-size="32" font-weight="700">$ build_portfolio</text>
  <text x="152" y="326" fill="#00f0ff" font-family="monospace" font-size="24">developer.identity()</text>
  <rect x="152" y="380" width="350" height="16" rx="8" fill="#00ff41" opacity=".65"/>
  <rect x="152" y="424" width="260" height="16" rx="8" fill="#00f0ff" opacity=".55"/>
  <rect x="152" y="468" width="310" height="16" rx="8" fill="#8b5cf6" opacity=".5"/>
  <rect x="680" y="214" width="402" height="328" rx="28" fill="#001411" stroke="#00f0ff" stroke-opacity=".4"/>
  <path d="M746 448L832 286L906 392L954 330L1018 448Z" fill="url(#neon)" opacity=".72" filter="url(#glow)"/>
  <rect x="118" y="584" width="238" height="48" rx="12" fill="url(#neon)" opacity=".95"/>
  <rect x="382" y="584" width="238" height="48" rx="12" fill="#07111d" stroke="#00f0ff" stroke-opacity=".5"/>
</svg>
