<svg xmlns="http://www.w3.org/2000/svg" width="1200" height="760" viewBox="0 0 1200 760" role="img" aria-label="Blockform Brutal theme preview">
  <rect width="1200" height="760" fill="#fdfaf3"/>
  <defs>
    <pattern id="dots" width="36" height="36" patternUnits="userSpaceOnUse">
      <circle cx="2" cy="2" r="2" fill="#111" opacity=".12"/>
    </pattern>
  </defs>
  <rect width="1200" height="760" fill="url(#dots)"/>
  <rect x="60" y="54" width="1080" height="78" fill="#fff" stroke="#111" stroke-width="5"/>
  <rect x="88" y="78" width="190" height="34" fill="#111"/>
  <text x="104" y="101" font-family="Arial Black, Impact, sans-serif" font-size="20" fill="#fdfaf3">BLOCKFORM</text>
  <rect x="880" y="78" width="68" height="28" fill="#ffd23f" stroke="#111" stroke-width="3"/>
  <rect x="964" y="78" width="68" height="28" fill="#fff" stroke="#111" stroke-width="3"/>
  <rect x="1048" y="78" width="56" height="28" fill="#ff6f9c" stroke="#111" stroke-width="3"/>
  <g transform="translate(72 180)">
    <rect x="0" y="0" width="594" height="330" fill="#fff" stroke="#111" stroke-width="5"/>
    <rect x="20" y="22" width="184" height="34" fill="#05c793" stroke="#111" stroke-width="4"/>
    <text x="38" y="45" font-family="monospace" font-size="16" font-weight="700" fill="#111">AVAILABLE</text>
    <text x="20" y="116" font-family="Arial Black, Impact, sans-serif" font-size="58" fill="#111">BOLD CMS</text>
    <rect x="20" y="134" width="330" height="64" fill="#ffd23f" stroke="#111" stroke-width="4"/>
    <text x="36" y="180" font-family="Arial Black, Impact, sans-serif" font-size="42" fill="#111">PORTFOLIO</text>
    <rect x="20" y="232" width="154" height="52" fill="#ffd23f" stroke="#111" stroke-width="4"/>
    <rect x="30" y="242" width="154" height="52" fill="none" stroke="#111" stroke-width="4"/>
    <rect x="206" y="232" width="144" height="52" fill="#fff" stroke="#111" stroke-width="4"/>
    <rect x="216" y="242" width="144" height="52" fill="none" stroke="#111" stroke-width="4"/>
  </g>
  <g transform="translate(742 184)">
    <rect x="0" y="0" width="300" height="300" fill="#4d8dff" stroke="#111" stroke-width="5"/>
    <rect x="18" y="18" width="264" height="264" fill="#ff6f9c" stroke="#111" stroke-width="4"/>
    <text x="98" y="180" font-family="Arial Black, Impact, sans-serif" font-size="74" fill="#111">AR</text>
    <rect x="-54" y="-34" width="132" height="70" fill="#ffd23f" stroke="#111" stroke-width="4" transform="rotate(-6)"/>
    <text x="-34" y="10" font-family="Arial Black, Impact, sans-serif" font-size="26" fill="#111">38+</text>
    <rect x="226" y="236" width="144" height="78" fill="#05c793" stroke="#111" stroke-width="4" transform="rotate(5)"/>
    <text x="252" y="285" font-family="Arial Black, Impact, sans-serif" font-size="28" fill="#111">PRO</text>
  </g>
  <g transform="translate(72 570)">
    <rect x="0" y="0" width="270" height="112" fill="#fff" stroke="#111" stroke-width="5"/>
    <rect x="16" y="18" width="58" height="58" fill="#ffd23f" stroke="#111" stroke-width="4"/>
    <rect x="94" y="24" width="138" height="15" fill="#111"/>
    <rect x="94" y="54" width="102" height="12" fill="#111" opacity=".35"/>
    <rect x="402" y="0" width="270" height="112" fill="#fff" stroke="#111" stroke-width="5"/>
    <rect x="418" y="18" width="58" height="58" fill="#ff6f9c" stroke="#111" stroke-width="4"/>
    <rect x="496" y="24" width="138" height="15" fill="#111"/>
    <rect x="496" y="54" width="102" height="12" fill="#111" opacity=".35"/>
    <rect x="804" y="0" width="270" height="112" fill="#fff" stroke="#111" stroke-width="5"/>
    <rect x="820" y="18" width="58" height="58" fill="#05c793" stroke="#111" stroke-width="4"/>
    <rect x="898" y="24" width="138" height="15" fill="#111"/>
    <rect x="898" y="54" width="102" height="12" fill="#111" opacity=".35"/>
  </g>

  <g id="theme-preview-icon-badge" transform="translate(1018 28)">
    <rect x="0" y="0" width="132" height="60" rx="20" fill="#0f172a" opacity="0.88"/>
    <rect x="1.5" y="1.5" width="129" height="57" rx="18.5" fill="none" stroke="#ffffff" stroke-opacity="0.22" stroke-width="3"/>
    <text x="28" y="40" text-anchor="middle" font-family="Arial, sans-serif" font-size="28" fill="#ffffff">🧱</text>
    <text x="64" y="35" font-family="Arial, sans-serif" font-size="15" font-weight="700" letter-spacing="1.5" fill="#ffffff">THEME</text>
  </g>
</svg>
