<svg xmlns="http://www.w3.org/2000/svg" width="800" height="420" viewBox="0 0 800 420">
  <defs>
    <linearGradient id="g" x1="0" x2="1" y1="0" y2="1"><stop offset="0" stop-color="#7c3aed"/><stop offset="1" stop-color="#06b6d4"/></linearGradient>
    <pattern id="grid" width="32" height="32" patternUnits="userSpaceOnUse"><path d="M32 0H0v32" fill="none" stroke="rgba(255,255,255,.07)"/></pattern>
  </defs>
  <rect width="800" height="420" rx="28" fill="#070b16"/>
  <rect width="800" height="420" fill="url(#grid)" opacity=".75"/>
  <rect x="54" y="54" width="692" height="312" rx="22" fill="#0f172a" stroke="rgba(255,255,255,.12)"/>
  <circle cx="92" cy="88" r="7" fill="#ff5f57"/><circle cx="116" cy="88" r="7" fill="#ffbd2e"/><circle cx="140" cy="88" r="7" fill="#28c840"/>
  <rect x="82" y="126" width="250" height="20" rx="6" fill="url(#g)"/>
  <rect x="82" y="166" width="330" height="18" rx="6" fill="rgba(255,255,255,.80)"/>
  <rect x="82" y="200" width="270" height="12" rx="6" fill="rgba(255,255,255,.45)"/>
  <rect x="82" y="226" width="310" height="12" rx="6" fill="rgba(255,255,255,.30)"/>
  <rect x="82" y="286" width="120" height="34" rx="10" fill="url(#g)"/>
  <rect x="222" y="286" width="110" height="34" rx="10" fill="rgba(255,255,255,.06)" stroke="rgba(255,255,255,.15)"/>
  <rect x="488" y="110" width="174" height="174" rx="28" fill="rgba(255,255,255,.06)" stroke="rgba(255,255,255,.14)"/>
  <path d="M535 250l52-98 62 98H535z" fill="url(#g)" opacity=".95"/>
  <text x="82" y="356" fill="rgba(255,255,255,.78)" font-family="monospace" font-size="22" font-weight="700">Neon Stack Pro</text>

  <g id="theme-preview-icon-badge" transform="translate(1018 28)">
    <rect x="0" y="0" width="132" height="60" rx="20" fill="#0f172a" opacity="0.88"/>
    <rect x="1.5" y="1.5" width="129" height="57" rx="18.5" fill="none" stroke="#ffffff" stroke-opacity="0.22" stroke-width="3"/>
    <text x="28" y="40" text-anchor="middle" font-family="Arial, sans-serif" font-size="28" fill="#ffffff">🌌</text>
    <text x="64" y="35" font-family="Arial, sans-serif" font-size="15" font-weight="700" letter-spacing="1.5" fill="#ffffff">THEME</text>
  </g>
</svg>